<svg width="164" height="45" viewBox="0 0 164 45" fill="none" xmlns="http://www.w3.org/2000/svg">
<path d="M16.73 44.84C20.72 44.84 23.38 43.86 24.71 42.6L22.61 34.48C22.26 34.9 21.07 35.32 19.88 35.32C17.99 35.32 16.87 33.85 16.87 31.89V19.57H23.73V10.19H16.87V0.949999H6.16V10.19H0.56V19.57H6.16V34.9C6.16 41.41 9.87 44.84 16.73 44.84ZM25.5046 27.06C25.5046 38.05 33.5546 44.84 43.9846 44.84C49.1646 44.84 54.7646 43.37 58.1246 40.36L53.5746 33.64C51.6846 35.32 48.3246 36.51 45.3146 36.51C40.2746 36.51 37.3346 33.64 36.7046 30.49H60.7846V28.18C60.7846 16.7 53.5046 9.35 43.4946 9.35C32.9246 9.35 25.5046 17.26 25.5046 27.06ZM43.4946 17.68C48.4646 17.68 50.2146 21.11 50.4946 23.49H36.5646C36.9846 21.04 38.8046 17.68 43.4946 17.68ZM75.4742 44V22.58C76.8742 20.62 80.5842 19.43 83.3842 19.43C84.5042 19.43 85.4142 19.57 86.0442 19.78V9.35C81.9842 9.35 77.7142 11.73 75.4742 14.46V10.19H64.6942V44H75.4742ZM100.324 44V22.58C101.724 20.62 105.434 19.43 108.234 19.43C109.354 19.43 110.264 19.57 110.894 19.78V9.35C106.834 9.35 102.564 11.73 100.324 14.46V10.19H89.5442V44H100.324ZM145.124 44V22.86C145.124 12.36 137.494 9.35 129.374 9.35C124.194 9.35 118.384 10.89 114.044 14.6L117.894 21.39C120.624 19.08 124.124 17.82 127.484 17.82C131.824 17.82 134.344 19.78 134.344 22.72V26.99C132.314 24.47 128.324 23.07 123.844 23.07C118.664 23.07 112.224 25.52 112.224 33.71C112.224 41.34 118.664 44.84 123.844 44.84C128.184 44.84 132.244 43.16 134.344 40.64V44H145.124ZM134.344 35.32C133.224 36.93 130.704 37.77 128.324 37.77C125.454 37.77 122.934 36.51 122.934 33.85C122.934 31.19 125.454 29.93 128.324 29.93C130.704 29.93 133.224 30.77 134.344 32.31V35.32ZM150.429 38.26C150.429 41.83 153.439 44.84 157.009 44.84C160.579 44.84 163.589 41.83 163.589 38.26C163.589 34.69 160.579 31.68 157.009 31.68C153.439 31.68 150.429 34.69 150.429 38.26Z" fill="#333333"/>
</svg>
